<svg xmlns="http://www.w3.org/2000/svg" version="1.1" xmlns:xlink="http://www.w3.org/1999/xlink" xmlns:svgjs="http://svgjs.com/svgjs" width="100%" height="100%" preserveAspectRatio="none" viewBox="0 0 1440 560">
    <g mask="url(&quot;#SvgjsMask1652&quot;)" fill="none">
        <rect width="100%" height="100%" x="0" y="0" fill="rgba(113, 223, 231, 1)"></rect>
        <path d="M0 23.66C38.25 -6.39 80.14 39.71 140 30C153.05 27.88 132.84 2.78 145.83 0C202.84 -12.22 212.92 0 280 0C350 0 350 0 420 0C490 0 490 0 560 0C630 0 630 0 700 0C770 0 770 0 840 0C910 0 910 0 980 0C1050 0 1050 0 1120 0C1145.61 0 1154.36 -16.24 1171.22 0C1224.36 51.17 1226.35 134.81 1260 134.81C1289.13 134.81 1256.51 38.77 1296.77 0C1326.51 -28.64 1348.39 0 1400 0C1470 0 1505 -35 1540 0C1575 35 1540 70 1540 140C1540 210 1540 210 1540 280C1540 330.99 1551.08 335.14 1540 381.98C1534.52 405.14 1506.88 400.17 1506.88 420C1506.88 442.51 1533.71 440.06 1540 466.67C1550.27 510.06 1563.51 536.85 1540 560C1516.13 583.51 1489.41 570.09 1445.23 560C1419.41 554.11 1426.13 530.26 1400 528.04C1333.51 522.39 1329.34 532.87 1260 544.25C1231.95 548.85 1233.27 556.84 1205.22 560C1163.27 564.72 1162.61 560 1120 560C1050 560 1050 560 980 560C910 560 910 560 840 560C787.5 560 778.65 576.47 735 560C708.65 550.06 727.25 514.44 700 507.17C639.75 491.1 606.43 539.35 560 513.33C528.65 495.76 574.16 446.41 544.44 420C504.16 384.19 480.69 388.89 420 388.89C385.53 388.89 354.12 393.05 354.12 420C354.12 474.49 374.05 504.41 420 551.76C441.99 574.41 490 557.93 490 560C490 562.05 455 560 420 560C350 560 350 560 280 560C215.45 560 184.44 593.53 150.91 560C114.44 523.53 135.91 489.45 140 420C144.15 349.45 167.39 348.51 167.39 280C167.39 247.01 166.6 219.66 140 217C82.91 211.3 38.12 284.25 0 263.28C-31.88 245.75 0 201.64 0 140C0 81.83 -31.75 48.61 0 23.66" stroke="rgba(194, 255, 249, 1)" stroke-width="2"></path>
        <path d="M980 133.17C966 133.17 952 135.49 952 140C952 144.74 966 151.67 980 151.67C994 151.67 1008 144.74 1008 140C1008 135.49 994 133.17 980 133.17" stroke="rgba(194, 255, 249, 1)" stroke-width="2"></path>
        <path d="M560 258.87C547.78 264.54 542.5 267.03 542.5 280C542.5 333.59 527.18 384.22 560 392C605.93 402.89 630.81 356.07 700 317.33C730.81 300.07 760 303.61 760 280C760 248.42 738.77 211.06 700 206.96C638.77 200.49 626.53 228.02 560 258.87" stroke="rgba(194, 255, 249, 1)" stroke-width="2"></path>
        <path d="M1400 228.57C1362.7 228.57 1313.1 259.07 1313.1 280C1313.1 298.94 1359.41 308.31 1400 308.31C1419.22 308.31 1432.73 296.55 1432.73 280C1432.73 256.68 1422.52 228.57 1400 228.57" stroke="rgba(194, 255, 249, 1)" stroke-width="2"></path>
        <path d="M0 308.72C43.15 308.72 140 363.46 140 420C140 477.75 42.63 537.3 0 537.3C-27.37 537.3 0 478.65 0 420C0 364.36 -26.85 308.72 0 308.72" stroke="rgba(194, 255, 249, 1)" stroke-width="2"></path>
        <path d="M0 72.96C31.78 72.96 99.17 105.81 99.17 140C99.17 174.85 31.34 211.04 0 211.04C-18.25 211.04 0 175.52 0 140C0 106.48 -17.8 72.96 0 72.96" stroke="rgba(194, 255, 249, 1)" stroke-width="2"></path>
        <path d="M210 140C197.87 70.76 172.67 43.55 194.44 0C207.67 -26.45 237.22 0 280 0C350 0 350 0 420 0C490 0 490 0 560 0C630 0 630 0 700 0C770 0 770 0 840 0C910 0 910 0 980 0C1020.84 0 1061.67 -11.07 1061.67 0C1061.67 12.83 1024.7 38.03 980 47.8C913.87 62.26 909.4 41.8 840 48.46C769.4 55.24 761.32 46.27 700 74.67C662.49 92.04 675.32 112.17 642.35 140C605.32 171.25 595.83 160.37 560 192.83C518.56 230.37 526.66 239.08 487.81 280C456.66 312.8 460.37 323.1 420 340.28C356.46 367.31 332.85 386.47 280 368.42C244.59 356.33 257.45 325.6 243.48 280C222.45 211.39 222.39 210.76 210 140" stroke="rgba(194, 255, 249, 1)" stroke-width="2"></path>
        <path d="M420 28C384.93 28 345.33 91.85 345.33 140C345.33 171.68 383.69 187.66 420 187.66C452.13 187.66 482.22 170.3 482.22 140C482.22 90.47 453.38 28 420 28" stroke="rgba(194, 255, 249, 1)" stroke-width="2"></path>
        <path d="M1372 140C1344.31 75.89 1322.57 47.74 1332.12 0C1336.57 -22.26 1366.06 0 1400 0C1470 0 1494.89 -24.89 1540 0C1564.89 13.73 1559.29 49.04 1540 77.24C1511.4 119.04 1493.71 111.75 1444.21 140C1423.71 151.7 1421.33 157.14 1400 157.14C1385.23 157.14 1378.25 154.46 1372 140" stroke="rgba(194, 255, 249, 1)" stroke-width="2"></path>
        <path d="M990 280C1012.43 217.64 1057.79 182.5 1120 182.5C1174.3 182.5 1171.09 231.71 1223.02 280C1241.09 296.8 1237.45 304.05 1260 312.67C1325.94 337.87 1338.24 315.96 1400 347.64C1442.87 369.63 1469.25 384.11 1469.25 420C1469.25 455.29 1443.13 473.41 1400 490C1338.51 513.66 1329.47 491.26 1260 500.5C1189.47 509.88 1185.57 505.04 1120 527.23C1097.67 534.79 1106.44 554.79 1084.19 560C1036.44 571.18 1032.1 560 980 560C910 560 910 560 840 560C809.38 560 799.78 577.86 778.75 560C729.78 518.42 744.41 495.25 700 441.13C686.97 425.25 663.87 431.23 663.87 420C663.87 408.22 680.85 405.76 700 395.11C768.92 356.76 780.94 314.89 840 322C884.35 327.34 867.72 376.27 906.82 420C937.72 454.55 945.55 478.55 980 478.55C1009.43 478.55 1032.82 455.01 1034.58 420C1037.82 355.74 969.72 336.39 990 280" stroke="rgba(194, 255, 249, 1)" stroke-width="2"></path>
        <path d="M1478.18 280C1478.18 233.44 1523.32 178.72 1540 178.72C1554.23 178.72 1540 229.36 1540 280C1540 309.38 1552.61 338.77 1540 338.77C1521.7 338.77 1478.18 313.47 1478.18 280" stroke="rgba(194, 255, 249, 1)" stroke-width="2"></path>
        <path d="M0 398.46C8.35 398.46 27.1 409.06 27.1 420C27.1 431.18 8.25 442.7 0 442.7C-5.3 442.7 0 431.35 0 420C0 409.23 -5.2 398.46 0 398.46" stroke="rgba(194, 255, 249, 1)" stroke-width="2"></path>
        <path d="M196.36 560C196.36 521.23 236.81 438.49 280 438.49C324.63 438.49 372 522.11 372 560C372 582.87 326 560 280 560C238.18 560 196.36 581.98 196.36 560" stroke="rgba(194, 255, 249, 1)" stroke-width="2"></path>
        <path d="M1499.08 560C1499.08 548.23 1527.98 519.7 1540 519.7C1548.44 519.7 1550.15 550 1540 560C1529.69 570.15 1499.08 568.38 1499.08 560" stroke="rgba(194, 255, 249, 1)" stroke-width="2"></path>
        <path d="M0 122.25C8.41 122.25 26.25 130.95 26.25 140C26.25 149.23 8.29 158.81 0 158.81C-4.83 158.81 0 149.4 0 140C0 131.13 -4.71 122.25 0 122.25" stroke="rgba(194, 255, 249, 1)" stroke-width="2"></path>
        <path d="M280 88.67C255.99 88.67 243.06 32.02 243.06 0C243.06 -12.31 261.53 0 280 0C313.25 0 346.5 -16.63 346.5 0C346.5 27.71 307.71 88.67 280 88.67" stroke="rgba(194, 255, 249, 1)" stroke-width="2"></path>
        <path d="M1400 76.67C1373.57 76.67 1367.47 27.57 1367.47 0C1367.47 -10.77 1383.74 0 1400 0C1450.32 0 1500.63 -16.98 1500.63 0C1500.63 21.35 1440.15 76.67 1400 76.67" stroke="rgba(194, 255, 249, 1)" stroke-width="2"></path>
        <path d="M375.79 280C375.79 272.46 400.43 262.13 420 262.13C429.1 262.13 433.13 271.76 433.13 280C433.13 286.53 427.96 291.67 420 291.67C399.29 291.67 375.79 287.23 375.79 280" stroke="rgba(194, 255, 249, 1)" stroke-width="2"></path>
        <path d="M1073.33 280C1077.14 254.46 1097.67 245 1120 245C1139.49 245 1138.06 262.97 1156.98 280C1208.06 325.97 1200 344.59 1260 371C1321.51 398.07 1335.21 368.47 1400 386.97C1421.02 392.97 1431.61 403.62 1431.61 420C1431.61 436.11 1420.85 447.5 1400 451.96C1335.04 465.87 1330.01 456.55 1260 456.75C1190.01 456.95 1183.93 466.91 1120 452.77C1100.88 448.54 1099.23 439.73 1093.9 420C1075.9 353.35 1064.09 341.96 1073.33 280" stroke="rgba(194, 255, 249, 1)" stroke-width="2"></path>
        <path d="M1523.64 280C1523.64 267.68 1535.59 253.19 1540 253.19C1543.77 253.19 1540 266.6 1540 280C1540 287.78 1543.34 295.56 1540 295.56C1535.16 295.56 1523.64 288.86 1523.64 280" stroke="rgba(194, 255, 249, 1)" stroke-width="2"></path>
        <path d="M241.82 560C241.82 542.3 260.28 504.53 280 504.53C300.37 504.53 322 542.71 322 560C322 570.44 301 560 280 560C260.91 560 241.82 570.04 241.82 560" stroke="rgba(194, 255, 249, 1)" stroke-width="2"></path>
        <path d="M822.5 560C822.5 517.35 809.7 463.43 840 460C888.45 454.52 910.92 499.74 980 542.18C992.31 549.74 1002.79 555.02 1002.79 560C1002.79 563.93 991.39 560 980 560C910 560 910 560 840 560C831.25 560 822.5 567.35 822.5 560" stroke="rgba(194, 255, 249, 1)" stroke-width="2"></path>
    </g>
    <defs>
        <mask id="SvgjsMask1652">
            <rect width="100%" height="100%" fill="#ffffff"></rect>
        </mask>
    </defs>
</svg>