<svg version="1.1" xmlns="http://www.w3.org/2000/svg" xmlns:xlink="http://www.w3.org/1999/xlink" x="0px" y="0px" viewBox="0 0 24.654 15.535" style="enable-background:new 0 0 24.654 15.535;" xml:space="preserve">
	<g id="Papeleria_x5F_Vizcaina">
		<path d="M2.269,2.296c1.437-1.417,3.42-2.263,5.44-2.293C10.337-0.001,12.966,0,15.594,0.002c1.825,0.037,3.626,0.73,5.007,1.923
		c0.369,0.372,0.769,0.718,1.081,1.141c1.102,1.402,1.674,3.2,1.616,4.979c-0.057,1.177-0.363,2.349-0.931,3.386
		c0.478,0.16,0.985,0.128,1.481,0.122c0.275-0.031,0.546-0.098,0.806-0.193c-0.013,0.463,0.006,0.927-0.01,1.39
		c-0.402,0.086-0.812,0.128-1.221,0.16c-0.617-0.021-1.234-0.118-1.82-0.317c-0.142,0.159-0.309,0.296-0.427,0.476
		c-0.16,0.231-0.424,0.355-0.608,0.565c-0.957,0.829-2.123,1.412-3.356,1.696c-0.729,0.178-1.484,0.213-2.232,0.2
		C9.986,15.533,4.992,15.525,0,15.535c0.009-2.766,0.001-5.531,0.004-8.297C0.12,5.385,0.961,3.605,2.269,2.296z M6.647,1.443
		c-2.084,0.377-3.942,1.832-4.78,3.781C1.477,6.086,1.313,7.038,1.331,7.98c-0.006,2.075,0.014,4.151-0.01,6.225
		c1.903-0.003,3.806-0.001,5.709-0.001c-0.001-0.884-0.002-1.767,0-2.65c0.451,0.001,0.903,0.001,1.355,0
		c0.001,0.884-0.001,1.767-0.001,2.65c1.911,0,3.821,0,5.731,0c0.001-0.506-0.002-1.012,0.001-1.518
		c-0.693-0.172-1.333-0.528-1.892-0.967c-0.461-0.427-0.922-0.873-1.216-1.437c-0.952-1.634-0.907-3.802,0.162-5.37
		c0.544-0.787,1.286-1.45,2.161-1.845c0.704-0.334,1.483-0.508,2.261-0.51c-0.002,0.441-0.003,0.882-0.001,1.323
		c-0.253,0.039-0.512,0.018-0.761,0.081c-0.998,0.195-1.929,0.776-2.496,1.625c-0.444,0.623-0.648,1.39-0.683,2.148
		c0.027,0.832,0.291,1.669,0.815,2.323c0.477,0.638,1.176,1.099,1.932,1.339c0.524,0.181,1.081,0.174,1.627,0.156
		c0.941-0.119,1.839-0.577,2.476-1.282c0.532-0.64,0.846-1.453,0.946-2.276c0.066,0.104,0.074,0.227,0.089,0.346
		c0.156,1.018,0.778,1.924,1.602,2.524c0.688-1.22,0.951-2.672,0.736-4.054c-0.183-1.192-0.714-2.328-1.513-3.232
		c-0.174-0.232-0.383-0.438-0.614-0.613c-1.21-1.084-2.843-1.67-4.464-1.641c-2.588,0.002-5.176-0.003-7.764,0.002
		C7.23,1.358,6.936,1.388,6.647,1.443z M19.501,11.175c-1.024,1.1-2.523,1.764-4.03,1.724c0,0.436-0.002,0.871,0.002,1.306
		c1.857,0.005,3.669-0.859,4.902-2.235C20.064,11.727,19.763,11.471,19.501,11.175z" />
		<path d="M20.909,7.567c0.142-0.32,0.694-0.275,0.785,0.06c0.01,0.11,0.002,0.22,0.001,0.33c-0.127,0.143-0.307,0.296-0.512,0.221
		C20.917,8.14,20.741,7.788,20.909,7.567z" />
	</g>
	<g id="Layer_1"></g>
</svg>